<svg id="visual" viewBox="0 0 960 540" width="960" height="540" xmlns="http://www.w3.org/2000/svg" xmlns:xlink="http://www.w3.org/1999/xlink" version="1.1"><path d="M0 392L13.3 395C26.7 398 53.3 404 80 409C106.7 414 133.3 418 160 412.8C186.7 407.7 213.3 393.3 240 383.7C266.7 374 293.3 369 320 372.5C346.7 376 373.3 388 400 402.8C426.7 417.7 453.3 435.3 480 444.8C506.7 454.3 533.3 455.7 560 445.8C586.7 436 613.3 415 640 414C666.7 413 693.3 432 720 426.2C746.7 420.3 773.3 389.7 800 388.5C826.7 387.3 853.3 415.7 880 427.2C906.7 438.7 933.3 433.3 946.7 430.7L960 428L960 541L946.7 541C933.3 541 906.7 541 880 541C853.3 541 826.7 541 800 541C773.3 541 746.7 541 720 541C693.3 541 666.7 541 640 541C613.3 541 586.7 541 560 541C533.3 541 506.7 541 480 541C453.3 541 426.7 541 400 541C373.3 541 346.7 541 320 541C293.3 541 266.7 541 240 541C213.3 541 186.7 541 160 541C133.3 541 106.7 541 80 541C53.3 541 26.7 541 13.3 541L0 541Z" fill="#fff" stroke-linecap="round" stroke-linejoin="miter"></path></svg>